<svg width="15" height="15" viewBox="0 0 15 15" fill="none" xmlns="http://www.w3.org/2000/svg">
<g clip-path="url(#clip0_10_21)">
<path d="M13.5496 13.7169L12.5553 14.7112C12.3777 14.8879 11.8577 14.9996 11.8421 14.9996C8.69463 15.0261 5.66434 13.7902 3.43741 11.5628C1.20408 9.32987 -0.0332126 6.28765 0.00112327 3.13101C0.00112327 3.12916 0.115117 2.62382 0.292275 2.44804L1.28652 1.45289C1.65135 1.08852 2.34985 0.923729 2.83919 1.08668L3.04884 1.15717C3.53819 1.32011 4.04947 1.86026 4.18497 2.35737L4.68574 4.19478C4.82168 4.69282 4.63904 5.4014 4.27468 5.76576L3.61002 6.43042C4.26188 8.84644 6.15647 10.7406 8.57112 11.3934L9.23577 10.7287C9.60017 10.3643 10.3106 10.1821 10.8086 10.3176L12.6461 10.8193C13.1423 10.9539 13.6824 11.4647 13.8463 11.9545L13.9159 12.1642C14.0787 12.6541 13.9139 13.3526 13.5496 13.7169ZM8.43744 7.49978H9.3749C9.3749 6.46434 8.5354 5.62484 7.49997 5.62484V6.56231C8.01673 6.56231 8.43744 6.98343 8.43744 7.49978ZM12.1873 7.49978C12.1873 4.91073 10.089 2.81241 7.49997 2.81241V3.74991C9.56806 3.74991 11.2498 5.4326 11.2498 7.49978H12.1873ZM7.49997 0V0.937469C11.118 0.937469 14.0622 3.88171 14.0622 7.49978H14.9997C14.9997 3.35806 11.6417 0 7.49997 0Z" fill="white"/>
</g>
<defs>
<clipPath id="clip0_10_21">
<rect width="15" height="15" fill="white"/>
</clipPath>
</defs>
</svg>
